<?xml version="1.0" encoding="utf-8"?>
<!-- Generator: Adobe Illustrator 17.0.0, SVG Export Plug-In . SVG Version: 6.00 Build 0)  -->
<!DOCTYPE svg PUBLIC "-//W3C//DTD SVG 1.1//EN" "http://www.w3.org/Graphics/SVG/1.1/DTD/svg11.dtd">
<svg version="1.1" id="Layer_1" xmlns="http://www.w3.org/2000/svg" xmlns:xlink="http://www.w3.org/1999/xlink" x="0px" y="0px"
	 width="960px" height="326px" viewBox="0 0 960 326" enable-background="new 0 0 960 326" xml:space="preserve">
<g>
	<path fill="#125387" d="M283.271,184.749c-0.042-0.074-0.112-0.127-0.194-0.147L208.911,166.7c-0.134-0.032-0.273,0.029-0.339,0.15
		c0,0.001-0.111,0.202-0.326,0.585c-1.615,2.872-9.081,15.87-19.069,28.979c-4.994,6.554-10.619,13.136-16.452,18.49
		c-4.439,4.076-9.311,7.784-14.884,10.156c-5.08,2.162-9.718,5.226-14.786,7.412c-5.443,2.348-11.226,3.915-17.082,4.799
		c-3.623,0.546-7.27,0.846-10.936,0.846c-18.995-0.004-42.917-7.632-67.6-35.178c-0.102-0.113-0.271-0.135-0.397-0.05
		c-0.126,0.085-0.171,0.249-0.106,0.386c0.01,0.019,9.187,19.114,28.001,38.221c18.811,19.105,47.279,38.23,85.836,38.23
		c9.773,0,20.193-1.229,31.263-3.996c0.023-0.006,16.935-4.107,36.798-17.498c19.862-13.39,42.679-36.081,54.466-73.24
		C283.322,184.91,283.313,184.823,283.271,184.749z"/>
	<path fill="#125387" d="M183.334,126.803c-0.143-0.034-0.289,0.039-0.349,0.172c0,0.001-0.118,0.264-0.349,0.766
		c-1.728,3.76-9.736,20.81-20.863,38.641c-5.563,8.915-11.906,18.026-18.629,25.766c-8.49,9.775-19.076,19.775-31.733,23.674
		c-3.531,1.088-7.434,1.567-11.126,1.567c-10.898,0-26.036-4.108-45.738-18.416c-0.124-0.09-0.296-0.074-0.401,0.037
		c-0.105,0.111-0.112,0.284-0.015,0.403c0.011,0.013,5.724,7.039,15.348,14.072c9.623,7.03,23.165,14.075,38.835,14.076
		c11.615,0.001,23.018-4.082,32.494-10.709c5.912-4.135,12.234-8.661,17.447-13.723c8.299-8.059,15.228-17.372,21.795-26.856
		c2.807-4.054,5.464-8.203,8-12.431c0.879-1.466,7.912-15.076,8.671-14.914c0.002,0,64.739,13.763,64.739,13.763
		c0.09,0.019,0.184-0.004,0.256-0.061c0.071-0.058,0.113-0.146,0.113-0.237v-16.879c0-0.142-0.097-0.265-0.235-0.297
		L183.334,126.803z"/>
	<path fill="#125387" d="M104.816,201.903c5.287-1.429,11.369-6.166,15.859-9.248c4.67-3.207,8.981-6.902,12.705-11.18
		c11.395-13.09,18.893-31.013,24.813-47.182c3.015-8.237,5.351-16.964,6.914-25.605l81.071,20.971l-1.534-17.391L140.299,88.738
		c0.204,39.039-16.879,69.563-16.879,69.563c-3.34,5.975-8.616,10.896-13.667,15.411c-8.618,7.705-21.267,13.788-32.829,9.215
		c-3.025-1.197-6.418-3.283-8.645-5.687c-2.213-2.389-5.376-6.897-5.727-10.243c-0.748-7.142-1.006-14.5-0.628-21.671
		c0.341-6.472,1.415-12.865,3.076-19.126c1.484-5.594,3.334-11.114,5.569-16.454c2.095-5.004,4.625-9.804,7.707-14.273
		c2.964-4.298,6.36-8.281,9.884-12.126c3.147-3.432,6.39-6.8,9.887-9.879c3.509-3.09,7.308-5.81,11.257-8.306
		c3.563-2.252,7.218-4.356,10.86-6.477c2.777-1.618,5.56-3.205,8.506-4.502c5.529-2.434,11.082-4.934,16.967-6.391
		c12.132-3.004,25.121-2.607,37.41-0.856c8.15,1.161,16.225,2.974,23.978,5.764c5.582,2.012,10.961,4.553,16.023,7.651
		c5.234,3.202,10.08,6.967,14.847,10.817c0.579,0.468,1.188,0.915,1.743,1.411c9.524,8.513,18.217,18.157,25.272,28.825
		c7.037,10.64,12.569,22.142,18.015,33.649c-4.887-15.086-7.902-29.652-16.367-43.359c-11.16-18.072-26.928-33.71-46.014-43.259
		c-37.895-18.96-84.463-20.595-121.353,1.589c-24.945,15.002-44.619,37.563-52.288,66.009c-2.039,7.564-3.317,15.568-3.836,23.387
		c-0.598,9.007-0.478,18.374,0.555,27.35c1,8.691,4.428,17.086,9.955,23.887C65.121,204.862,88.427,206.333,104.816,201.903z"/>
</g>
<g>
	<g>
		<path fill="#125387" d="M416.644,164.441c3.361,4.534,5.042,10.11,5.042,16.73c0,5.909-1.554,11.077-4.66,15.508
			c-3.108,4.431-7.539,7.869-13.292,10.313c-5.756,2.444-12.504,3.667-20.244,3.667h-40.642c-4.178,0-7.386-1.12-9.625-3.361
			c-2.242-2.239-3.361-5.448-3.361-9.626v-81.741c0-4.175,1.12-7.384,3.361-9.625c2.239-2.239,5.448-3.361,9.625-3.361h39.114
			c11.306,0,20.294,2.521,26.967,7.563c6.67,5.042,10.007,11.841,10.007,20.397c0,5.5-1.478,10.366-4.431,14.591
			c-2.956,4.228-7.081,7.31-12.375,9.244C408.443,156.676,413.283,159.911,416.644,164.441z M357.21,145.267h20.015
			c5.295,0,9.167-0.814,11.612-2.444c2.444-1.628,3.667-4.226,3.667-7.792c0-3.768-1.222-6.518-3.667-8.25
			c-2.445-1.731-6.317-2.598-11.612-2.598H357.21V145.267z M391.969,186.749c2.392-1.781,3.591-4.71,3.591-8.785
			c0-4.073-1.199-7.002-3.591-8.786c-2.395-1.78-6.393-2.673-11.994-2.673H357.21v22.918h22.765
			C385.576,189.423,389.574,188.532,391.969,186.749z"/>
		<path fill="#125387" d="M436.887,119.675c-2.7-2.392-4.049-5.577-4.049-9.549c0-3.973,1.349-7.129,4.049-9.473
			c2.698-2.342,6.341-3.514,10.924-3.514c4.481,0,8.098,1.172,10.848,3.514c2.75,2.344,4.125,5.5,4.125,9.473
			c0,3.972-1.351,7.157-4.049,9.549c-2.7,2.395-6.341,3.591-10.924,3.591S439.585,122.07,436.887,119.675z M438.109,208.444
			c-2.597-2.086-3.896-5.219-3.896-9.396V146.49c0-4.176,1.299-7.308,3.896-9.396c2.598-2.086,5.83-3.132,9.702-3.132
			c3.87,0,7.104,1.046,9.702,3.132c2.597,2.089,3.896,5.221,3.896,9.396v52.558c0,4.178-1.299,7.311-3.896,9.396
			c-2.598,2.089-5.833,3.132-9.702,3.132C443.939,211.576,440.707,210.533,438.109,208.444z"/>
		<path fill="#125387" d="M481.041,208.444c-2.597-2.086-3.896-5.219-3.896-9.396v-84.185c0-4.175,1.299-7.334,3.896-9.473
			c2.598-2.139,5.83-3.208,9.702-3.208c3.87,0,7.104,1.07,9.702,3.208c2.598,2.139,3.896,5.298,3.896,9.473v84.185
			c0,4.178-1.299,7.311-3.896,9.396c-2.598,2.089-5.832,3.132-9.702,3.132C486.871,211.576,483.639,210.533,481.041,208.444z"/>
		<path fill="#125387" d="M523.973,208.444c-2.598-2.086-3.896-5.219-3.896-9.396v-84.185c0-4.175,1.299-7.334,3.896-9.473
			c2.598-2.139,5.83-3.208,9.702-3.208c3.87,0,7.104,1.07,9.702,3.208c2.598,2.139,3.896,5.298,3.896,9.473v84.185
			c0,4.178-1.299,7.311-3.896,9.396c-2.598,2.089-5.832,3.132-9.702,3.132C529.803,211.576,526.57,210.533,523.973,208.444z"/>
		<path fill="#125387" d="M660.105,105.925c2.494,2.497,3.742,5.832,3.742,10.007v81.741c0,4.178-1.248,7.539-3.742,10.084
			c-2.498,2.548-5.832,3.819-10.008,3.819c-4.178,0-7.514-1.246-10.008-3.743c-2.496-2.494-3.742-5.882-3.742-10.16v-30.558h-44.004
			v30.558c0,4.178-1.248,7.539-3.742,10.084c-2.498,2.548-5.832,3.819-10.008,3.819c-4.178,0-7.514-1.246-10.008-3.743
			c-2.498-2.494-3.744-5.882-3.744-10.16v-81.741c0-4.175,1.246-7.51,3.744-10.007c2.494-2.495,5.83-3.744,10.008-3.744
			c4.176,0,7.51,1.249,10.008,3.744c2.494,2.497,3.742,5.832,3.742,10.007v28.877h44.004v-28.877c0-4.175,1.246-7.51,3.742-10.007
			c2.494-2.495,5.83-3.744,10.008-3.744C654.273,102.181,657.607,103.43,660.105,105.925z"/>
		<path fill="#125387" d="M684.244,119.675c-2.701-2.392-4.049-5.577-4.049-9.549c0-3.973,1.348-7.129,4.049-9.473
			c2.697-2.342,6.34-3.514,10.924-3.514c4.48,0,8.098,1.172,10.848,3.514c2.75,2.344,4.125,5.5,4.125,9.473
			c0,3.972-1.352,7.157-4.049,9.549c-2.699,2.395-6.34,3.591-10.924,3.591S686.941,122.07,684.244,119.675z M685.465,208.444
			c-2.598-2.086-3.895-5.219-3.895-9.396V146.49c0-4.176,1.297-7.308,3.895-9.396c2.598-2.086,5.83-3.132,9.703-3.132
			c3.869,0,7.104,1.046,9.701,3.132c2.598,2.089,3.896,5.221,3.896,9.396v52.558c0,4.178-1.299,7.311-3.896,9.396
			c-2.598,2.089-5.832,3.132-9.701,3.132C691.295,211.576,688.063,210.533,685.465,208.444z"/>
		<path fill="#125387" d="M779.428,135.947c1.986-1.222,4.15-1.833,6.494-1.833c3.361,0,6.34,1.122,8.938,3.361
			c2.598,2.242,3.896,4.942,3.896,8.098c0,1.733-0.408,3.414-1.223,5.042l-26.738,53.169c-1.221,2.548-2.979,4.508-5.27,5.883
			c-2.293,1.375-4.814,2.063-7.564,2.063s-5.297-0.688-7.639-2.063c-2.344-1.375-4.125-3.335-5.348-5.883l-26.738-53.169
			c-0.816-1.833-1.223-3.461-1.223-4.889c0-3.259,1.4-6.035,4.203-8.327c2.799-2.292,6.035-3.438,9.701-3.438
			c2.445,0,4.711,0.638,6.799,1.91c2.086,1.274,3.691,3.185,4.813,5.729l16.195,34.988l16.043-34.988
			C775.887,139.056,777.441,137.169,779.428,135.947z"/>
		<path fill="#125387" d="M872.322,189.27c1.475,1.834,2.215,4.229,2.215,7.182c0,4.074-1.986,7.181-5.959,9.319
			c-3.463,1.733-7.563,3.185-12.299,4.354s-9.09,1.757-13.063,1.757c-8.354,0-15.637-1.577-21.85-4.736
			c-6.213-3.155-11-7.689-14.361-13.598c-3.361-5.906-5.043-12.834-5.043-20.779c0-7.536,1.605-14.285,4.813-20.244
			c3.209-5.959,7.691-10.593,13.445-13.904c5.754-3.309,12.248-4.966,19.48-4.966c7.029,0,13.191,1.528,18.488,4.584
			c5.295,3.056,9.396,7.386,12.299,12.987c2.902,5.603,4.355,12.172,4.355,19.709c0,2.344-0.535,4.151-1.605,5.424
			c-1.068,1.274-2.623,1.91-4.66,1.91h-40.336c0.713,4.889,2.293,8.402,4.736,10.542c2.445,2.139,6.061,3.208,10.85,3.208
			c2.543,0,4.889-0.279,7.027-0.84c2.139-0.559,4.531-1.349,7.182-2.368c1.527-0.611,3.029-1.146,4.506-1.604
			s2.828-0.688,4.049-0.688C868.934,186.52,870.844,187.437,872.322,189.27z M831.91,155.428c-2.139,2.291-3.414,5.629-3.82,10.007
			h23.988c-0.611-8.962-4.484-13.445-11.611-13.445C836.898,151.99,834.049,153.136,831.91,155.428z"/>
	</g>
</g>
</svg>
